/* XPM */
static char *bottom_right_active[] = {
/* columns rows colors chars-per-pixel */
"20 20 2 1 ",
"  c #151515",
". c None",
/* pixels */
"................... ",
"................... ",
"................... ",
"................... ",
"................... ",
"................... ",
"................... ",
"................... ",
"................... ",
"................... ",
"................... ",
"................... ",
"................... ",
"................... ",
"................... ",
"................... ",
"................... ",
"................... ",
"................... ",
"                    "
};
