/* XPM */
static char *bottom_left_inactive[] = {
/* columns rows colors chars-per-pixel */
"20 20 2 1 ",
"  c #282828",
". c None",
/* pixels */
" ...................",
" ...................",
" ...................",
" ...................",
" ...................",
" ...................",
" ...................",
" ...................",
" ...................",
" ...................",
" ...................",
" ...................",
" ...................",
" ...................",
" ...................",
" ...................",
" ...................",
" ...................",
" ...................",
"                    "
};
