/* XPM */
static char *close_inactive[] = {
/* columns rows colors chars-per-pixel */
"22 22 12 1 ",
"  c #181818",
". c #282828",
"X c gray17",
"o c #2C2C2C",
"O c gray20",
"+ c #555555",
"@ c gray34",
"# c gray35",
"$ c #5F5F5F",
"% c #606060",
"& c DimGray",
"* c #6A6A6A",
/* pixels */
"                      ",
"oooooooooooooooooooooo",
"ooooooooooooooooXoXXoo",
"ooooooooooooooooXXXXoo",
"XXXXXXXXXXXXXXXXXXXXXX",
"XXXXXXXXXXXXXXXXXXXXXX",
"XXXXXXO#ooXXXO#OXXXXXX",
"XXXXXX@*$OXXO%*@XXXXXX",
"XXXXXXo$*%OO$*#XXXXXXX",
"X.XXXXXX$*$$*$OXXX.X.X",
"X.X.XXXXo$*&$XXXX.X.XX",
"XXXXXXXXO$**$XXXX.XXX.",
".X.XX.XX$*$$*#XXXXXXXX",
".X..X.X$*$XX$*$O......",
"X.X.XX@*$XX.O$*@.X.X..",
"..X.XXX@XX.XXX#X.X...X",
".X.X...X.X...X.X....XX",
"...X.X...X.X...X.XX...",
"......................",
"......................",
"......................",
"......................"
};
