/* XPM */
static char *close_active[] = {
/* columns rows colors chars-per-pixel */
"22 22 15 1 ",
"  c gray9",
". c #282828",
"X c gray17",
"o c #2C2C2C",
"O c #323232",
"+ c #373737",
"@ c gray23",
"# c gray24",
"$ c #838383",
"% c #868686",
"& c gray56",
"* c #929292",
"= c gray58",
"- c #989898",
"; c #AAAAAA",
/* pixels */
"                      ",
"######################",
"ooooooooooooooooooXXoo",
"ooooooooooooooooXXXXoo",
"XXXXXXXXXXXXXXXXXXXXXX",
"XXXXXXXXXXXXXXXXXXXXXX",
"XXXXXX#%+XXXX+%#XXXXXX",
"XXXXXX$;=+XX+=;$XXXXXX",
"XXXXXXO&;-@#-;*OXXXXXX",
"X.XXXXXO=;==;=+XXX.X.X",
"X.X.X.XX+*;;*OXXX.X.XX",
"XXX.XXXXO*;;*OXXX.XXX.",
".X.XX.XO*;**;*OXXXXXXX",
".X..X.+*;*OO*;*+......",
"X.X.X.$;*+.X+*;$.X.X..",
"..X...@%OX.X.+$@.X...X",
".X.X...X.X...X.X....XX",
"...X.X...X.X...X.XX...",
"......................",
"......................",
"......................",
"......................"
};
