/* XPM */
static char *close_pressed[] = {
/* columns rows colors chars-per-pixel */
"22 22 21 1 ",
"  c gray9",
". c #282828",
"X c gray17",
"o c #2C2C2C",
"O c #372525",
"+ c #342626",
"@ c #372727",
"# c #3A2727",
"$ c #3E2424",
"% c #3F2525",
"& c #342828",
"* c gray24",
"= c #9A0C0C",
"- c #9E0C0C",
"; c #AF0707",
": c #AB0808",
"> c #AB0909",
", c #AE0808",
"< c #B10707",
"1 c #B50606",
"2 c #CC0000",
/* pixels */
"                      ",
"**********************",
"ooooooooooooooooXXXXXo",
"ooooooooooooooooXXXXoo",
"XXXXXXXXXXXXXXXXXXXXXX",
"XXXXXXXXXXXXXXXXXXXXXX",
"XXXXXXXXXXXXXXXXXXXXXX",
"XXXXXX%-#XXXX#-%XXXXXX",
"XXXXXX=2<#XX#<2-XXXXXX",
".XX.XX+:21%%12>&.XXXX.",
"XXXXXXX@<2<<2;@X.XXXXX",
"X..XX.X.@;22;@XXXX...X",
"XXX.X.XX@,22;@XXXX.X.X",
"..X.X..@,2<<2>+..X.X.X",
".X..X.#<2>+@;2;#..X.X.",
"...X..=2<#.X@<2=X...X.",
"X.X...%-@...X@-$X.X...",
"X...X..XX.X.X...X...X.",
"......................",
"......................",
"......................",
"......................"
};
