/* XPM */
static char *close_prelight[] = {
/* columns rows colors chars-per-pixel */
"22 22 25 1 ",
"  c gray9",
". c #282828",
"X c gray17",
"o c #2C2C2C",
"O c #372525",
"+ c #342626",
"@ c #362727",
"# c #392525",
"$ c #3A2727",
"% c #3E2424",
"& c #3F2525",
"* c #342828",
"= c gray24",
"- c #9A0C0C",
"; c #9B0D0D",
": c #9E0C0C",
"> c #AF0707",
", c #AB0808",
"< c #AB0909",
"1 c #AD0808",
"2 c #B10707",
"3 c #B20606",
"4 c #B20707",
"5 c #B50606",
"6 c #CC0000",
/* pixels */
"                      ",
"======================",
"ooooooooooooooooXoXXoo",
"ooooooooooooooooXXXXoo",
"XXXXXXXXXXXXXXXXXXXXXX",
"XXXXXXXXXXXXXXXXXXXXXX",
"XXXXXX&:$XXXX$:&XXXXXX",
"XXXXXX;64$XX$46;XXXXXX",
"XXXXXX+>65&&56<*XXXXXX",
".XX..XX@464464@XX.X.XX",
"XXXXXXX.@>66>@XXXX.X..",
"X..XX.X.@166>+XX.XXXXX",
"XXX.XXX@>6446<@XX.XXXX",
"..X...@46,+$>64@X.....",
".X...X-64@..$46;X....X",
"...X.X%:@XX..@:&..XX..",
"X.X...X.X...X.X..X.X..",
"X...X.X...X.X......X.X",
"......................",
"......................",
"......................",
"......................"
};
