/* XPM */
static char *maximize_active[] = {
/* columns rows colors chars-per-pixel */
"22 22 12 1 ",
"  c gray9",
". c #282828",
"X c gray17",
"o c #2C2C2C",
"O c gray20",
"+ c #353535",
"@ c gray24",
"# c #898989",
"$ c gray55",
"% c #929292",
"& c #A9A9A9",
"* c #AAAAAA",
/* pixels */
"                      ",
"@@@@@@@@@@@@@@@@@@@@@@",
"ooooooooooooooooXoXXoo",
"ooooooooooooooooXXXXoo",
"XXXXXXXXXXXXXXXXXXXXXX",
"XXXXXXXXXXXXXXXXXXXXXX",
"XXXXXXXXXX******XXXXXX",
"XXXXXXXXXX******XXXXXX",
"XXXXXXXXXXoO%***XXXXXX",
"X.XXX.XXXX+%*%**XX.X.X",
"X.X.X.X.XX#*%O**X.X.XX",
"XXX.XXX.XX@#OX**X.XXX.",
".X.XX.XX.X.XXX.XXXXXXX",
".X..X.&&&X.XXX........",
"X.X.X.&&&...X.X..X.X..",
"..X...&&&XX...X..X...X",
".X.X...X.X...X.X....XX",
"...X.X...X.X...X.XX...",
"......................",
"......................",
"......................",
"......................"
};
