/* XPM */
static char *maximize_pressed[] = {
/* columns rows colors chars-per-pixel */
"22 22 13 1 ",
"  c gray9",
". c #282828",
"X c gray17",
"o c #2C2C2C",
"O c gray22",
"+ c #3A3A3A",
"@ c gray24",
"# c #505050",
"$ c gray79",
"% c #CDCDCD",
"& c LightGray",
"* c #D7D7D7",
"= c gray100",
/* pixels */
"                      ",
"@@@@@@@@@@@@@@@@@@@@@@",
"ooooooooooooooooooXXoo",
"oooooooooooooooooXXXoo",
"XXXXXXXXXXXXXXXXXXXXXX",
"XXXXXXXXXXXXXXXXXXXXXX",
"XXXXXXXXXXXXXXXXXXXXXX",
"XXXXXXXXXX======XXXXXX",
"XXXXXXXXXX======XXXXXX",
".XX..XX.XXXO&===X.X.XX",
"XXXXXXXXXXO*=*==XX.X..",
"X..XX..XXX$=*O==.XXXXX",
"XXX.XXXXXX#$OX==X.XXXX",
"..X......Xo.oo.XX.....",
".X...X===.X....XX....X",
"...X.X===...XX....XX..",
"X.X...===...X.X..X.X..",
"X...X..XX.X.X......X.X",
"......................",
"......................",
"......................",
"......................"
};
