/* XPM */
static char *maximize_prelight[] = {
/* columns rows colors chars-per-pixel */
"22 22 12 1 ",
"  c gray9",
". c #282828",
"X c gray17",
"o c #2C2C2C",
"O c #3C3C3C",
"+ c gray24",
"@ c #505050",
"# c gray79",
"$ c #CDCDCD",
"% c LightGray",
"& c #D5D5D5",
"* c gray100",
/* pixels */
"                      ",
"++++++++++++++++++++++",
"ooooooooooooooooooXXoo",
"ooooooooooooooooooXXoo",
"XXXXXXXXXXXXXXXXXXXXXX",
"XXXXXXXXXXXXXXXXXXXXXX",
"XXXXXXXXXX******XXXXXX",
"XXXXXXXXXX******XXXXXX",
"XXXXXXXXXXXO%***XXXXXX",
".XX..XX.XXO%*%**X.X.XX",
"XXXXXXXXXX#*&O**XX.X..",
"X..XX..XXX@$OX**.XXXXX",
"XXX.XX.XXXXXXXX.X.XXXX",
"..X..X***...X.X.X.....",
".X....***..X.X..X....X",
"...XX.***..X...X..XX..",
"X.X...X.X...X.X..X.X..",
"X...X.X...X.X......X.X",
"......................",
"......................",
"......................",
"......................"
};
