/* XPM */
static char *menu_active[] = {
/* columns rows colors chars-per-pixel */
"22 22 18 1 ",
"  c gray9",
". c #282828",
"X c gray17",
"o c #2C2C2C",
"O c #323232",
"+ c #373737",
"@ c gray22",
"# c gray24",
"$ c gray45",
"% c gray46",
"& c #7B7B7B",
"* c #7C7C7C",
"= c #838383",
"- c gray52",
"; c #939393",
": c #959595",
"> c #A9A9A9",
", c #AAAAAA",
/* pixels */
"                      ",
"######################",
"ooooooooooooooooXoXXoo",
"ooooooooooooooooXXXXoo",
"XXXXXXXXXXXXXXXXXXXXXX",
"XXXXXXXXXXXXXXXXXXXXXX",
"XXXXXXXoOX,,XOoXXXXXXX",
"XXXXXXo%;*,,*;%oXXXXXX",
"XXXXXXO:,,,,,,:OXXXXXX",
"X.XXXXX*,=@@-,*XXX.X.X",
"X.X.XX,,,@XX@,,,X.X.XX",
"XXXXXX,,,+XX@,,,X.XXX.",
".X.XX.X&,=++-,*XXXXXXX",
".X..X.X:>>>>,,;O......",
"X.X.X.X%;&,,&;$X.X.X..",
"..X...XXX.,,XoXX.X...X",
".X.X...X.X...X.X....XX",
"...X.X...X.X...X.XX...",
"......................",
"......................",
"......................",
"......................"
};
