/* XPM */
static char *menu_prelight[] = {
/* columns rows colors chars-per-pixel */
"22 22 18 1 ",
"  c gray9",
". c #282828",
"X c gray17",
"o c #2C2C2C",
"O c #343434",
"+ c gray21",
"@ c #373737",
"# c gray24",
"$ c #414141",
"% c #444444",
"& c #A4A4A4",
"* c gray65",
"= c gray70",
"- c gray71",
"; c #C0C0C0",
": c #D8D8D8",
"> c gray85",
", c gray100",
/* pixels */
"                      ",
"######################",
"ooooooooooooooooooXXoo",
"ooooooooooooooooXXXXoo",
"XXXXXXXXXXXXXXXXXXXXXX",
"XXXXXXXXXXXXXXXXXXXXXX",
"XXXXXXXo+X,,X+oXXXXXXX",
"XXXXXXo*>=,,=>*oXXXXXX",
"XXXXXX+>,,,,,,>+XXXXXX",
"XX.XXXX=,;%%;,=o.XXXX.",
".X.XXX,,,$XX%,,,.XXXXX",
".XXX.X,,,$XX$,,,XX...X",
"XXXXX.X=,;##;,-XXX.X.X",
"....X.+>,,,,,,>+.X.X.X",
"...XX.X&>=,,=:*X..X.X.",
"XX.....X+X,,.OXXX...X.",
"....XX....XX....X.X...",
".XX....XX....XX.X...X.",
"......................",
"......................",
"......................",
"......................"
};
