/* XPM */
static char *menu_pressed[] = {
/* columns rows colors chars-per-pixel */
"22 22 18 1 ",
"  c gray9",
". c #282828",
"X c gray17",
"o c #2C2C2C",
"O c #343434",
"+ c gray21",
"@ c #373737",
"# c gray24",
"$ c gray26",
"% c #464646",
"& c #A4A4A4",
"* c gray70",
"= c #B4B4B4",
"- c gray75",
"; c #C0C0C0",
": c #D8D8D8",
"> c gray85",
", c gray100",
/* pixels */
"                      ",
"######################",
"ooooooooooooooooooXXoo",
"ooooooooooooooooXXXXoo",
"XXXXXXXXXXXXXXXXXXXXXX",
"XXXXXXXXXXXXXXXXXXXXXX",
"XXXXXXXXXXXXXXXXXXXXXX",
"XXXXXXXo+X,,X+oXXXXXXX",
"XXXXXXo&>*,,*>&oXXXXXX",
"X.XXXo+>,,,,,,>+X.X.XX",
"X.X.XXX*,;%%;,*XXX.X..",
"XXXXXX,,,$XX%,,,.XXXXX",
".X.XX.,,,$XX$,,,X.XXXX",
".X..X..*,-##;,*XX.....",
"X.X.X.+>,,,,,,>+X....X",
"..X..XX&:*,,*>&X..XX..",
".X.X...XOX,,XOX..X.X..",
"...X.XX........X...X.X",
"......................",
"......................",
"......................",
"......................"
};
