/* XPM */
static char *menu_inactive[] = {
/* columns rows colors chars-per-pixel */
"22 22 11 1 ",
"  c #181818",
". c #282828",
"X c gray17",
"o c #2C2C2C",
"O c #313131",
"+ c #4E4E4E",
"@ c #505050",
"# c gray33",
"$ c #5F5F5F",
"% c DimGray",
"& c #6A6A6A",
/* pixels */
"                      ",
"oooooooooooooooooooooo",
"ooooooooooooooooXoXXoo",
"ooooooooooooooooXXXXoo",
"XXXXXXXXXXXXXXXXXXXXXX",
"XXXXXXXXXXXoXXXXXXXXXX",
"XXXXXXXXoo&&ooXXXXXXXX",
"XXXXXXX@$#&&#$@XXXXXXX",
"XXXXXXo$&&&&&&$oXXXXXX",
"X.XXXXX+&#OO#&#oXX.X.X",
"X.X.XX&&&OXXo&&&X.X.XX",
"XXXXXX&&&OXXO&&&X.XXX.",
".X.XX.X+&@OX#&@oXXXXXX",
".X..X.X$&&&%&&$o......",
"X.X.X.X+$@%%+$+o.X.X..",
"..X...XXoo&&XXXX.X...X",
".X.X...X.X...X.X....XX",
"...X.X...X.X...X.XX...",
"......................",
"......................",
"......................",
"......................"
};
