/* XPM */
static char *top_left_inactive[] = {
/* columns rows colors chars-per-pixel */
"19 22 17 1 ",
"  c #181818",
". c #191919",
"X c gray10",
"o c #1B1B1B",
"O c gray11",
"+ c #1D1D1D",
"@ c #1E1E1E",
"# c gray12",
"$ c #202020",
"% c gray13",
"& c #222222",
"* c #232323",
"= c gray14",
"- c #252525",
"; c gray15",
": c #282828",
"> c None",
/* pixels */
">>                 ",
"> :::::::::::::::::",
" ::::::::::::::::::",
" ::::::::::::::::::",
" ::::::::::::::::::",
" ::::::::::::::::::",
"+::::::::::::::::::",
"+::::::::::::::::::",
"+::::::::::::::::::",
"+::::::::::::::::::",
"$::::::::::::::::::",
"$::::::::::::::::::",
"$::::::::::::::::::",
"$::::::::::::::::::",
"-::::::::::::::::::",
"-::::::::::::::::::",
"-::::::::::::::::::",
"-::::::::::::::::::",
":::::::::::::::::::",
":::::::::::::::::::",
":::::::::::::::::::",
":::::::::::::::::::"
};
