/* XPM */
static char *top_right_active_shaded[] = {
/* columns rows colors chars-per-pixel */
"19 22 11 1 ",
"  c #151515",
". c #161616",
"X c gray9",
"o c #202020",
"O c #282828",
"+ c gray16",
"@ c #2A2A2A",
"# c gray17",
"$ c #2C2C2C",
"% c gray24",
"& c None",
/* pixels */
"XXXXXXXXXXXXXXXXX&&",
"%%%%%%%%%%%%%%%%%o&",
"$$$$$$$$$$$$$$$$##X",
"$$$$$$$$$$$$$$$$##X",
"##################X",
"##################X",
"##################X",
"##################X",
"##################X",
"##O###O###O####O## ",
"O#O#O#O##O#####O#O ",
"O###O######OOO###OX",
"#####O###########OX",
"OOOO#OOOOOOOOOOO#OX",
"OOO##OOOO##OOOO##OX",
"##OOOO##OOOO##OOOO ",
"OOOO##OOOO##OOOO#O ",
"O##OOOO##OOOO##O#OX",
"OOOOOOOOOOOOOOOOOO ",
"OOOOOOOOOOOOOOOOOO ",
"OOOOOOOOOOOOOOOOOO ",
"OOOOOOOOOOOOOOOOOO "
};
