/* XPM */
static char *top_left_active[] = {
/* columns rows colors chars-per-pixel */
"19 22 11 1 ",
"  c #151515",
". c #161616",
"X c gray9",
"o c #202020",
"O c #282828",
"+ c gray16",
"@ c #2A2A2A",
"# c gray17",
"$ c #2C2C2C",
"% c gray24",
"& c None",
/* pixels */
"&&XXXXXXXXXXXXXXXXX",
"&o%%%%%%%%%%%%%%%%%",
"X$$$$$$$$$$$$$$$$$#",
"X$$$$$$$$$$$$$$$$##",
"X##################",
"X##################",
"X##################",
"X##################",
"X##################",
"X#O###O###O####O##O",
" #O#O#O##O#####O#O#",
"XO##O######OOO###O#",
"X##O#O###########O#",
" O#O#OOOOOOOOOOO#OO",
"X#OO#OOOO##OOOO##OO",
" OO#OO##OOOO##OOOO#",
"XO#OOO#O#OOO#O#OO#O",
"XOOO#O#OOO#O#OOOOO#",
" OOOOOOOOOOOOOOOOOO",
" OOOOOOOOOOOOOOOOOO",
" OOOOOOOOOOOOOOOOOO",
" OOOOOOOOOOOOOOOOOO"
};
